<svg width="424" height="76" viewBox="0 0 424 76" fill="none" xmlns="http://www.w3.org/2000/svg">
<path d="M78 16.9024C78 17.0645 77.7554 17.1861 77.2661 17.2672C76.8583 17.3483 76.6137 17.2672 76.5322 17.024C74.575 7.7824 68.9075 3.1616 59.5295 3.1616H54.6367C51.701 3.1616 49.6215 3.68853 48.3983 4.7424C47.1751 5.79626 46.5635 7.5392 46.5635 9.97119V36.3584H56.5938C65.7271 36.3584 70.2938 33.3184 70.2938 27.2384C70.2938 27.0763 70.5384 26.9952 71.0277 26.9952C71.517 26.9952 71.7616 27.0763 71.7616 27.2384L71.6393 37.9392C71.6393 40.4523 71.6801 42.3168 71.7616 43.5328L71.884 49.856C71.884 50.0992 71.6393 50.2208 71.15 50.2208C70.6607 50.2208 70.4161 50.0992 70.4161 49.856C70.4161 42.9653 65.7271 39.52 56.3492 39.52H46.5635V65.664C46.5635 68.2581 46.8897 70.1632 47.5421 71.3792C48.1945 72.5141 49.4584 73.3248 51.334 73.8112C53.2912 74.2976 56.2676 74.5408 60.2635 74.5408C60.4266 74.5408 60.5081 74.784 60.5081 75.2704C60.5081 75.7568 60.4266 76 60.2635 76C56.92 76 54.3105 75.9595 52.4349 75.8784L40.4475 75.7568L31.518 75.8784C29.9686 75.9595 27.8076 76 25.035 76C24.7904 76 24.6681 75.7568 24.6681 75.2704C24.6681 74.784 24.7904 74.5408 25.035 74.5408C27.9707 74.5408 30.091 74.3381 31.3957 73.9328C32.782 73.5275 33.7198 72.7573 34.2091 71.6224C34.6984 70.4064 34.943 68.5824 34.943 66.1504V9.8496C34.943 7.4176 34.6984 5.63413 34.2091 4.4992C33.8014 3.36426 32.9451 2.59413 31.6404 2.18879C30.3356 1.70239 28.3377 1.4592 25.6466 1.4592C25.402 1.4592 25.2797 1.216 25.2797 0.729598C25.2797 0.243199 25.402 0 25.6466 0H76.5322C77.3476 0 77.7554 0.364798 77.7554 1.09439L78 16.9024Z" fill="#40898A"/>
<path d="M1.46785 57.0304C1.46785 56.8683 1.30476 56.7872 0.97857 56.7872C0.733928 56.7872 0.53006 56.8683 0.366965 57.0304C0.122322 57.1115 0 57.1925 0 57.2736C0.815475 63.4347 1.22321 69.0688 1.22321 74.176C1.22321 74.8245 1.34553 75.3109 1.59017 75.6352C1.83482 75.8784 2.3241 76 3.05803 76H56.1453C56.39 76 56.5123 75.7568 56.5123 75.2704C56.5123 74.784 56.39 74.5408 56.1453 74.5408C53.3727 74.5408 51.3748 74.3381 50.1516 73.9328C48.8468 73.5275 47.9906 72.7573 47.5829 71.6224C47.0936 70.4064 46.8489 68.5824 46.8489 66.1504V9.8496C46.8489 7.4176 47.0936 5.63413 47.5829 4.4992C47.9906 3.36426 48.8468 2.59413 50.1516 2.18879C51.4564 1.70239 53.4543 1.4592 56.1453 1.4592C56.39 1.4592 56.5123 1.216 56.5123 0.729598C56.5123 0.243199 56.39 0 56.1453 0H5.2598C4.44433 0 4.03659 0.364798 4.03659 1.09439L3.79195 16.9024C3.79195 17.0645 4.03659 17.1861 4.52588 17.2672C4.93362 17.3483 5.17826 17.2672 5.2598 17.024C7.21694 7.7824 12.8845 3.1616 22.2624 3.1616H27.1553C30.091 3.1616 32.1704 3.68853 33.3936 4.7424C34.6168 5.79626 35.2284 7.57973 35.2284 10.0928V34.8992H23.4856C14.5154 34.8992 10.0303 31.8997 10.0303 25.9008C10.0303 25.6576 9.82645 25.536 9.41872 25.536C8.92943 25.536 8.68479 25.6576 8.68479 25.9008L8.80711 36.48L8.68479 42.1952C8.5217 44.7893 8.44015 46.8971 8.44015 48.5184C8.44015 48.6805 8.68479 48.7616 9.17407 48.7616C9.66336 48.7616 9.908 48.6805 9.908 48.5184C9.908 41.5467 14.4746 38.0608 23.6079 38.0608H35.2284V65.664C35.2284 68.3392 34.7392 70.2037 33.7606 71.2576C32.7005 72.3115 30.8657 72.8384 28.2561 72.8384H22.2624C11.3351 72.8384 4.40356 67.5691 1.46785 57.0304Z" fill="#40898A"/>
<path d="M127.619 35.3822V40.9079H100.35V1.27908H127.115V6.80479H106.621V18.0795H124.371V23.2703H106.621V35.3822H127.619Z" fill="#40898A"/>
<path d="M159.006 1.27908H164.941L180.395 40.9079H173.788L169.589 30.1356H154.246L150.103 40.9079H143.439L159.006 1.27908ZM168.357 25.5029L161.973 8.14435L155.366 25.5029H168.357Z" fill="#40898A"/>
<path d="M221.721 10.6002C221.348 10.1909 220.806 9.76299 220.097 9.31647C219.388 8.83274 218.548 8.38622 217.577 7.97691C216.607 7.5676 215.562 7.2327 214.442 6.97223C213.322 6.71176 212.165 6.58153 210.97 6.58153C208.357 6.58153 206.416 7.06526 205.147 8.03272C203.878 9.00019 203.243 10.3398 203.243 12.0514C203.243 13.3166 203.598 14.3212 204.307 15.0654C205.016 15.7724 206.099 16.3678 207.555 16.8515C209.01 17.3353 210.84 17.8562 213.042 18.4144C215.73 19.0469 218.063 19.8097 220.041 20.7028C222.02 21.5586 223.531 22.7121 224.577 24.1633C225.622 25.6145 226.144 27.5308 226.144 29.9123C226.144 31.9216 225.771 33.6519 225.025 35.1031C224.278 36.5543 223.233 37.745 221.889 38.6753C220.545 39.5683 218.996 40.2381 217.241 40.6846C215.487 41.094 213.602 41.2986 211.586 41.2986C209.608 41.2986 207.629 41.094 205.651 40.6846C203.71 40.2753 201.843 39.68 200.051 38.8986C198.297 38.0799 196.673 37.0939 195.18 35.9403L198.036 30.5821C198.521 31.0658 199.211 31.6054 200.107 32.2007C201.041 32.7589 202.104 33.2984 203.299 33.8194C204.531 34.3403 205.856 34.7868 207.275 35.1589C208.73 35.4938 210.205 35.6613 211.698 35.6613C214.199 35.6613 216.103 35.2334 217.409 34.3775C218.753 33.4845 219.425 32.2193 219.425 30.5821C219.425 29.2425 218.996 28.182 218.137 27.4006C217.279 26.582 216.028 25.8936 214.386 25.3355C212.743 24.7773 210.784 24.2191 208.506 23.661C205.893 22.954 203.71 22.1912 201.955 21.3726C200.201 20.5167 198.875 19.4376 197.98 18.1353C197.121 16.7957 196.692 15.1027 196.692 13.0561C196.692 10.4514 197.326 8.25598 198.596 6.46989C199.865 4.6466 201.582 3.28843 203.747 2.39538C205.949 1.46513 208.413 1 211.138 1C212.93 1 214.628 1.20466 216.234 1.61397C217.839 1.98607 219.332 2.50701 220.713 3.17679C222.132 3.84658 223.419 4.60939 224.577 5.46522L221.721 10.6002Z" fill="#40898A"/>
<path d="M247.745 1.27908L258.72 20.9819L269.807 1.27908H276.694L261.856 26.7308V40.9079H255.585V26.6192L240.858 1.27908H247.745Z" fill="#40898A"/>
<path d="M320.268 40.9079V1.27908H346.753V6.80479H326.539V18.6376H343.449V23.8284H326.539V40.9079H320.268Z" fill="#40898A"/>
<path d="M366.133 40.9079V1.27908H372.404V40.9079H366.133Z" fill="#40898A"/>
<path d="M424 6.80479H410.785V40.9079H404.458V6.80479H391.188V1.27908H424V6.80479Z" fill="#40898A"/>
<path d="M117.342 54.7396V75.7924H113.981V66.5114H103.332V75.7924H100V54.7396H103.332V63.5462H113.981V54.7396H117.342Z" fill="#40898A"/>
<path d="M143.733 72.8569V75.7924H129.246V54.7396H143.465V57.6752H132.578V63.6648H142.007V66.4224H132.578V72.8569H143.733Z" fill="#40898A"/>
<path d="M160.407 54.7396H163.56L171.77 75.7924H168.26L166.029 70.0696H157.878L155.677 75.7924H152.137L160.407 54.7396ZM165.374 67.6085L161.983 58.3868L158.473 67.6085H165.374Z" fill="#40898A"/>
<path d="M181.521 75.7924V54.7396H184.853V72.8569H196.186V75.7924H181.521Z" fill="#40898A"/>
<path d="M218.364 57.6752H211.343V75.7924H207.982V57.6752H200.932V54.7396H218.364V57.6752Z" fill="#40898A"/>
<path d="M245.677 54.7396V75.7924H242.316V66.5114H231.667V75.7924H228.335V54.7396H231.667V63.5462H242.316V54.7396H245.677Z" fill="#40898A"/>
<path d="M259.128 54.7396L264.958 65.2067L270.848 54.7396H274.507L266.624 68.2609V75.7924H263.292V68.2016L255.469 54.7396H259.128Z" fill="#40898A"/>
<path d="M315.414 75.7924V60.7886L309.197 72.1749H307.234L300.987 60.7886V75.7924H297.655V54.7396H301.225L308.215 67.6085L315.206 54.7396H318.776V75.7924H315.414Z" fill="#40898A"/>
<path d="M345.164 72.8569V75.7924H330.678V54.7396H344.897V57.6752H334.009V63.6648H343.439V66.4224H334.009V72.8569H345.164Z" fill="#40898A"/>
<path d="M361.839 54.7396H364.992L373.202 75.7924H369.692L367.461 70.0696H359.31L357.109 75.7924H353.569L361.839 54.7396ZM366.806 67.6085L363.415 58.3868L359.905 67.6085H366.806Z" fill="#40898A"/>
<path d="M382.953 75.7924V54.7396H386.285V72.8569H397.618V75.7924H382.953Z" fill="#40898A"/>
<path d="M419.957 59.6915C419.759 59.474 419.472 59.2467 419.095 59.0095C418.718 58.7525 418.272 58.5153 417.756 58.2978C417.241 58.0804 416.685 57.9025 416.09 57.7641C415.495 57.6257 414.881 57.5565 414.246 57.5565C412.858 57.5565 411.827 57.8135 411.152 58.3275C410.478 58.8415 410.141 59.5531 410.141 60.4624C410.141 61.1345 410.329 61.6683 410.706 62.0636C411.083 62.4392 411.658 62.7555 412.431 63.0125C413.205 63.2695 414.177 63.5462 415.347 63.8427C416.775 64.1788 418.014 64.584 419.065 65.0585C420.116 65.5131 420.919 66.1259 421.474 66.8969C422.03 67.6678 422.307 68.6859 422.307 69.951C422.307 71.0185 422.109 71.9377 421.712 72.7086C421.316 73.4796 420.761 74.1122 420.047 74.6064C419.333 75.0808 418.51 75.4366 417.578 75.6738C416.646 75.8913 415.644 76 414.573 76C413.522 76 412.471 75.8913 411.42 75.6738C410.389 75.4564 409.397 75.1401 408.445 74.725C407.513 74.2901 406.651 73.7662 405.857 73.1534L407.375 70.3068C407.632 70.5638 407.999 70.8505 408.475 71.1667C408.971 71.4633 409.536 71.7499 410.171 72.0266C410.825 72.3034 411.529 72.5406 412.283 72.7383C413.056 72.9162 413.839 73.0052 414.633 73.0052C415.961 73.0052 416.973 72.7778 417.667 72.3232C418.381 71.8487 418.738 71.1766 418.738 70.3068C418.738 69.5952 418.51 69.0318 418.054 68.6167C417.597 68.1818 416.933 67.8161 416.061 67.5196C415.188 67.2231 414.147 66.9265 412.937 66.63C411.549 66.2544 410.389 65.8492 409.457 65.4143C408.525 64.9596 407.821 64.3864 407.345 63.6945C406.889 62.9828 406.661 62.0834 406.661 60.9962C406.661 59.6124 406.998 58.4461 407.672 57.4972C408.346 56.5286 409.258 55.8071 410.409 55.3327C411.579 54.8385 412.888 54.5914 414.335 54.5914C415.287 54.5914 416.189 54.7001 417.042 54.9175C417.895 55.1152 418.688 55.392 419.422 55.7478C420.176 56.1036 420.86 56.5088 421.474 56.9635L419.957 59.6915Z" fill="#40898A"/>
</svg>
